<svg width="64" height="64" viewBox="0 0 64 64" fill="none" xmlns="http://www.w3.org/2000/svg">
<path d="M45 35H19V57H45V35Z" stroke="black" stroke-width="2" stroke-linejoin="round"/>
<path d="M45 7H19V29H45V7Z" stroke="black" stroke-width="2" stroke-linejoin="round"/>
<path d="M15 4H13C12.4477 4 12 4.44772 12 5V7C12 7.55228 12.4477 8 13 8H15C15.5523 8 16 7.55228 16 7V5C16 4.44772 15.5523 4 15 4Z" fill="black"/>
<path d="M15 10H13C12.4477 10 12 10.4477 12 11V13C12 13.5523 12.4477 14 13 14H15C15.5523 14 16 13.5523 16 13V11C16 10.4477 15.5523 10 15 10Z" fill="black"/>
<path d="M15 16H13C12.4477 16 12 16.4477 12 17V19C12 19.5523 12.4477 20 13 20H15C15.5523 20 16 19.5523 16 19V17C16 16.4477 15.5523 16 15 16Z" fill="black"/>
<path d="M15 22H13C12.4477 22 12 22.4477 12 23V25C12 25.5523 12.4477 26 13 26H15C15.5523 26 16 25.5523 16 25V23C16 22.4477 15.5523 22 15 22Z" fill="black"/>
<path d="M15 28H13C12.4477 28 12 28.4477 12 29V31C12 31.5523 12.4477 32 13 32H15C15.5523 32 16 31.5523 16 31V29C16 28.4477 15.5523 28 15 28Z" fill="black"/>
<path d="M15 34H13C12.4477 34 12 34.4477 12 35V37C12 37.5523 12.4477 38 13 38H15C15.5523 38 16 37.5523 16 37V35C16 34.4477 15.5523 34 15 34Z" fill="black"/>
<path d="M15 41H13C12.4477 41 12 41.4477 12 42V44C12 44.5523 12.4477 45 13 45H15C15.5523 45 16 44.5523 16 44V42C16 41.4477 15.5523 41 15 41Z" fill="black"/>
<path d="M15 48H13C12.4477 48 12 48.4477 12 49V51C12 51.5523 12.4477 52 13 52H15C15.5523 52 16 51.5523 16 51V49C16 48.4477 15.5523 48 15 48Z" fill="black"/>
<path d="M15 55H13C12.4477 55 12 55.4477 12 56V58C12 58.5523 12.4477 59 13 59H15C15.5523 59 16 58.5523 16 58V56C16 55.4477 15.5523 55 15 55Z" fill="black"/>
<path d="M19 29L45 29V7L19 7L19 29Z" stroke="black" stroke-width="2" stroke-linejoin="round"/>
<path d="M49 8H51C51.5523 8 52 7.55228 52 7V5C52 4.44772 51.5523 4 51 4H49C48.4477 4 48 4.44772 48 5V7C48 7.55228 48.4477 8 49 8Z" fill="black"/>
<path d="M49 14H51C51.5523 14 52 13.5523 52 13V11C52 10.4477 51.5523 10 51 10H49C48.4477 10 48 10.4477 48 11V13C48 13.5523 48.4477 14 49 14Z" fill="black"/>
<path d="M49 20H51C51.5523 20 52 19.5523 52 19V17C52 16.4477 51.5523 16 51 16H49C48.4477 16 48 16.4477 48 17V19C48 19.5523 48.4477 20 49 20Z" fill="black"/>
<path d="M49 26H51C51.5523 26 52 25.5523 52 25V23C52 22.4477 51.5523 22 51 22H49C48.4477 22 48 22.4477 48 23V25C48 25.5523 48.4477 26 49 26Z" fill="black"/>
<path d="M49 32H51C51.5523 32 52 31.5523 52 31V29C52 28.4477 51.5523 28 51 28H49C48.4477 28 48 28.4477 48 29V31C48 31.5523 48.4477 32 49 32Z" fill="black"/>
<path d="M49 38H51C51.5523 38 52 37.5523 52 37V35C52 34.4477 51.5523 34 51 34H49C48.4477 34 48 34.4477 48 35V37C48 37.5523 48.4477 38 49 38Z" fill="black"/>
<path d="M49 45H51C51.5523 45 52 44.5523 52 44V42C52 41.4477 51.5523 41 51 41H49C48.4477 41 48 41.4477 48 42V44C48 44.5523 48.4477 45 49 45Z" fill="black"/>
<path d="M49 52H51C51.5523 52 52 51.5523 52 51V49C52 48.4477 51.5523 48 51 48H49C48.4477 48 48 48.4477 48 49V51C48 51.5523 48.4477 52 49 52Z" fill="black"/>
<path d="M49 59H51C51.5523 59 52 58.5523 52 58V56C52 55.4477 51.5523 55 51 55H49C48.4477 55 48 55.4477 48 56V58C48 58.5523 48.4477 59 49 59Z" fill="black"/>
<path d="M19 1V32" stroke="black" stroke-width="2" stroke-linejoin="round"/>
<path d="M19 32V63" stroke="black" stroke-width="2" stroke-linejoin="round"/>
<path d="M45 32V63" stroke="black" stroke-width="2" stroke-linejoin="round"/>
<path d="M45 1V32" stroke="black" stroke-width="2" stroke-linejoin="round"/>
</svg>
