<svg width="164" height="114" viewBox="0 0 164 114" fill="none" xmlns="http://www.w3.org/2000/svg">
<g filter="url(#filter0_bd_190_1760)">
<path d="M47.7269 49.0777C48.0989 48.5276 48.7197 48.198 49.3837 48.198H114.616C115.28 48.198 115.901 48.5276 116.273 49.0777L147.89 95.8383C148.788 97.1665 147.837 98.9586 146.233 98.9586H17.7666C16.1633 98.9586 15.2117 97.1665 16.1098 95.8383L47.7269 49.0777Z" fill="#EEEEEE" fill-opacity="0.15" shape-rendering="crispEdges"/>
</g>
<ellipse cx="29.1381" cy="91.1107" rx="0.771859" ry="0.771859" fill="#212121"/>
<ellipse cx="64.2029" cy="91.1107" rx="0.771859" ry="0.771859" fill="#212121"/>
<ellipse cx="134.333" cy="91.1107" rx="0.771859" ry="0.771859" fill="#212121"/>
<ellipse cx="99.2677" cy="91.1107" rx="0.771859" ry="0.771859" fill="#212121"/>
<ellipse cx="52.1239" cy="52.8007" rx="0.771859" ry="0.771859" fill="#212121"/>
<ellipse cx="71.8649" cy="52.8007" rx="0.771859" ry="0.771859" fill="#212121"/>
<ellipse cx="111.347" cy="52.8007" rx="0.771859" ry="0.771859" fill="#212121"/>
<ellipse cx="91.6057" cy="52.8007" rx="0.771859" ry="0.771859" fill="#212121"/>
<ellipse cx="37.7577" cy="75.7868" rx="0.771859" ry="0.771859" fill="#212121"/>
<ellipse cx="67.0761" cy="75.7868" rx="0.771859" ry="0.771859" fill="#212121"/>
<ellipse cx="125.713" cy="75.7868" rx="0.771859" ry="0.771859" fill="#212121"/>
<ellipse cx="96.3945" cy="75.7868" rx="0.771859" ry="0.771859" fill="#212121"/>
<ellipse cx="47.3352" cy="62.3783" rx="0.771859" ry="0.771859" fill="#212121"/>
<ellipse cx="70.7156" cy="62.3783" rx="0.771859" ry="0.771859" fill="#212121"/>
<ellipse cx="117.476" cy="62.3783" rx="0.771859" ry="0.771859" fill="#212121"/>
<ellipse cx="94.0958" cy="62.3783" rx="0.771859" ry="0.771859" fill="#212121"/>
<g filter="url(#filter1_d_190_1760)">
<path d="M47.7269 15.8797C48.0989 15.3296 48.7197 15 49.3837 15H114.616C115.28 15 115.901 15.3296 116.273 15.8797L147.89 62.6403C148.788 63.9685 147.837 65.7606 146.233 65.7606H17.7666C16.1633 65.7606 15.2117 63.9685 16.1098 62.6403L47.7269 15.8797Z" fill="white" fill-opacity="0.8" shape-rendering="crispEdges"/>
<path d="M48.1411 16.1598C48.4201 15.7472 48.8857 15.5 49.3837 15.5H114.616C115.114 15.5 115.58 15.7472 115.859 16.1598L116.273 15.8797L115.859 16.1598L147.476 62.9204C148.15 63.9165 147.436 65.2606 146.233 65.2606H17.7666C16.5641 65.2606 15.8504 63.9165 16.524 62.9204L48.1411 16.1598Z" stroke="#FFC700" shape-rendering="crispEdges"/>
</g>
<ellipse cx="29.1381" cy="57.9125" rx="0.771859" ry="0.771859" fill="#212121"/>
<ellipse cx="64.2029" cy="57.9125" rx="0.771859" ry="0.771859" fill="#212121"/>
<ellipse cx="134.333" cy="57.9125" rx="0.771859" ry="0.771859" fill="#212121"/>
<ellipse cx="99.2677" cy="57.9125" rx="0.771859" ry="0.771859" fill="#212121"/>
<ellipse cx="52.1239" cy="19.6027" rx="0.771859" ry="0.771859" fill="#212121"/>
<ellipse cx="71.8649" cy="19.6027" rx="0.771859" ry="0.771859" fill="#212121"/>
<ellipse cx="111.347" cy="19.6027" rx="0.771859" ry="0.771859" fill="#212121"/>
<ellipse cx="91.6057" cy="19.6027" rx="0.771859" ry="0.771859" fill="#212121"/>
<ellipse cx="37.7577" cy="42.5888" rx="0.771859" ry="0.771859" fill="#212121"/>
<ellipse cx="67.0761" cy="42.5888" rx="0.771859" ry="0.771859" fill="#212121"/>
<ellipse cx="125.713" cy="42.5888" rx="0.771859" ry="0.771859" fill="#212121"/>
<ellipse cx="96.3945" cy="42.5888" rx="0.771859" ry="0.771859" fill="#212121"/>
<ellipse cx="47.3352" cy="29.1801" rx="0.771859" ry="0.771859" fill="#212121"/>
<ellipse cx="70.7156" cy="29.1801" rx="0.771859" ry="0.771859" fill="#212121"/>
<ellipse cx="117.476" cy="29.1801" rx="0.771859" ry="0.771859" fill="#212121"/>
<ellipse cx="94.0958" cy="29.1801" rx="0.771859" ry="0.771859" fill="#212121"/>
<defs>
<filter id="filter0_bd_190_1760" x="-24.2368" y="8.198" width="212.474" height="130.76" filterUnits="userSpaceOnUse" color-interpolation-filters="sRGB">
<feFlood flood-opacity="0" result="BackgroundImageFix"/>
<feGaussianBlur in="BackgroundImage" stdDeviation="20"/>
<feComposite in2="SourceAlpha" operator="in" result="effect1_backgroundBlur_190_1760"/>
<feColorMatrix in="SourceAlpha" type="matrix" values="0 0 0 0 0 0 0 0 0 0 0 0 0 0 0 0 0 0 127 0" result="hardAlpha"/>
<feOffset/>
<feGaussianBlur stdDeviation="7.5"/>
<feComposite in2="hardAlpha" operator="out"/>
<feColorMatrix type="matrix" values="0 0 0 0 0 0 0 0 0 0 0 0 0 0 0 0 0 0 0.15 0"/>
<feBlend mode="normal" in2="effect1_backgroundBlur_190_1760" result="effect2_dropShadow_190_1760"/>
<feBlend mode="normal" in="SourceGraphic" in2="effect2_dropShadow_190_1760" result="shape"/>
</filter>
<filter id="filter1_d_190_1760" x="0.763184" y="0" width="162.474" height="80.7605" filterUnits="userSpaceOnUse" color-interpolation-filters="sRGB">
<feFlood flood-opacity="0" result="BackgroundImageFix"/>
<feColorMatrix in="SourceAlpha" type="matrix" values="0 0 0 0 0 0 0 0 0 0 0 0 0 0 0 0 0 0 127 0" result="hardAlpha"/>
<feOffset/>
<feGaussianBlur stdDeviation="7.5"/>
<feComposite in2="hardAlpha" operator="out"/>
<feColorMatrix type="matrix" values="0 0 0 0 1 0 0 0 0 0.780392 0 0 0 0 0 0 0 0 0.2 0"/>
<feBlend mode="normal" in2="BackgroundImageFix" result="effect1_dropShadow_190_1760"/>
<feBlend mode="normal" in="SourceGraphic" in2="effect1_dropShadow_190_1760" result="shape"/>
</filter>
</defs>
</svg>
