<svg width="293" height="105" viewBox="0 0 293 105" fill="none" xmlns="http://www.w3.org/2000/svg">
<circle cx="38.7075" cy="30.6992" r="2.22458" fill="#212121"/>
<circle cx="3.11441" cy="30.6991" r="3.11441" fill="#FFC700"/>
<circle cx="38.7075" cy="101.886" r="2.22458" fill="#212121"/>
<circle cx="3.11441" cy="101.886" r="3.11441" fill="#FFC700"/>
<circle cx="74.3007" cy="30.6991" r="3.11441" fill="#FFC700"/>
<circle cx="74.3007" cy="101.886" r="3.11441" fill="#FFC700"/>
<circle cx="74.3008" cy="66.2924" r="2.22458" fill="#212121"/>
<circle cx="38.7075" cy="66.2924" r="2.22458" fill="#212121"/>
<circle cx="3.11422" cy="66.2924" r="2.22458" fill="#212121"/>
<rect x="45.8262" y="29.8093" width="21.3559" height="1.77966" rx="0.889831" fill="#FFC700"/>
<rect x="10.2329" y="100.996" width="21.3559" height="1.77966" rx="0.889831" fill="#FFC700"/>
<rect x="75.2747" y="37.9868" width="21.3559" height="1.77966" rx="0.889831" transform="rotate(90 75.2747 37.9868)" fill="#FFC700"/>
<rect x="75.106" y="73.5796" width="21.3559" height="1.77966" rx="0.889831" transform="rotate(90 75.106 73.5796)" fill="#FFC700"/>
<rect x="39.6819" y="37.8181" width="21.3559" height="1.77966" rx="0.889831" transform="rotate(90 39.6819 37.8181)" fill="#FFC700"/>
<rect x="39.5132" y="73.4109" width="21.3559" height="1.77966" rx="0.889831" transform="rotate(90 39.5132 73.4109)" fill="#FFC700"/>
<rect x="4.08887" y="37.6492" width="21.3559" height="1.77966" rx="0.889831" transform="rotate(90 4.08887 37.6492)" fill="#FFC700"/>
<rect x="3.92017" y="73.2419" width="21.3559" height="1.77966" rx="0.889831" transform="rotate(90 3.92017 73.2419)" fill="#FFC700"/>
<path d="M32.4254 9.675L32.3954 9.33C32.7754 9.5 33.1054 9.72 33.3854 9.99C33.6654 10.26 33.8804 10.555 34.0304 10.875C34.1804 11.195 34.2554 11.525 34.2554 11.865C34.2554 12.435 34.0954 12.96 33.7754 13.44C33.4654 13.91 33.0454 14.29 32.5154 14.58C31.9854 14.86 31.3954 15 30.7454 15C30.0954 15 29.5054 14.86 28.9754 14.58C28.4454 14.29 28.0204 13.91 27.7004 13.44C27.3904 12.96 27.2354 12.435 27.2354 11.865C27.2354 11.405 27.3304 11.01 27.5204 10.68C27.7204 10.34 27.9654 10.055 28.2554 9.825C28.5554 9.595 28.8504 9.405 29.1404 9.255L29.0204 9.675C28.7704 9.575 28.5254 9.435 28.2854 9.255C28.0554 9.065 27.8654 8.825 27.7154 8.535C27.5654 8.245 27.4904 7.905 27.4904 7.515C27.4904 6.955 27.6354 6.45 27.9254 6C28.2154 5.54 28.6054 5.175 29.0954 4.905C29.5954 4.635 30.1454 4.5 30.7454 4.5C31.3554 4.5 31.9004 4.635 32.3804 4.905C32.8704 5.175 33.2604 5.54 33.5504 6C33.8404 6.45 33.9854 6.955 33.9854 7.515C33.9854 7.945 33.9004 8.305 33.7304 8.595C33.5604 8.885 33.3554 9.115 33.1154 9.285C32.8754 9.455 32.6454 9.585 32.4254 9.675ZM29.2904 7.545C29.2904 7.815 29.3504 8.055 29.4704 8.265C29.6004 8.475 29.7754 8.645 29.9954 8.775C30.2154 8.895 30.4654 8.955 30.7454 8.955C31.0254 8.955 31.2704 8.895 31.4804 8.775C31.7004 8.645 31.8704 8.475 31.9904 8.265C32.1204 8.055 32.1854 7.815 32.1854 7.545C32.1854 7.145 32.0454 6.815 31.7654 6.555C31.4954 6.285 31.1554 6.15 30.7454 6.15C30.3254 6.15 29.9754 6.285 29.6954 6.555C29.4254 6.815 29.2904 7.145 29.2904 7.545ZM30.7454 13.35C31.2254 13.35 31.6304 13.205 31.9604 12.915C32.2904 12.615 32.4554 12.255 32.4554 11.835C32.4554 11.545 32.3804 11.285 32.2304 11.055C32.0804 10.825 31.8754 10.645 31.6154 10.515C31.3554 10.375 31.0654 10.305 30.7454 10.305C30.4254 10.305 30.1354 10.375 29.8754 10.515C29.6154 10.645 29.4104 10.825 29.2604 11.055C29.1104 11.285 29.0354 11.545 29.0354 11.835C29.0354 12.255 29.2004 12.615 29.5304 12.915C29.8604 13.205 30.2654 13.35 30.7454 13.35ZM36.1132 17.01C35.9432 17.01 35.7682 16.94 35.5882 16.8C35.4082 16.66 35.3182 16.48 35.3182 16.26C35.3182 16.14 35.3482 16.02 35.4082 15.9L41.4982 3.435C41.5682 3.295 41.6632 3.185 41.7832 3.105C41.9032 3.025 42.0282 2.985 42.1582 2.985C42.3282 2.985 42.4982 3.055 42.6682 3.195C42.8482 3.325 42.9382 3.505 42.9382 3.735C42.9382 3.855 42.9082 3.975 42.8482 4.095L36.7732 16.56C36.7032 16.7 36.6082 16.81 36.4882 16.89C36.3782 16.97 36.2532 17.01 36.1132 17.01ZM47.6536 15.15C47.1136 15.15 46.6236 15.04 46.1836 14.82C45.7536 14.59 45.3836 14.28 45.0736 13.89C44.7736 13.5 44.5386 13.06 44.3686 12.57C44.2086 12.08 44.1286 11.575 44.1286 11.055C44.1286 10.715 44.1636 10.305 44.2336 9.825C44.3136 9.345 44.4486 8.84 44.6386 8.31C44.8286 7.78 45.0936 7.265 45.4336 6.765C45.7736 6.265 46.2036 5.815 46.7236 5.415C47.2536 5.015 47.8986 4.71 48.6586 4.5C48.7786 4.47 48.8936 4.455 49.0036 4.455C49.2336 4.455 49.4386 4.515 49.6186 4.635C49.8086 4.755 49.9036 4.975 49.9036 5.295C49.9036 5.515 49.8286 5.71 49.6786 5.88C49.5386 6.04 49.3486 6.155 49.1086 6.225C48.7686 6.325 48.4286 6.475 48.0886 6.675C47.7586 6.865 47.4486 7.1 47.1586 7.38C46.8786 7.66 46.6336 7.98 46.4236 8.34C46.2236 8.69 46.0786 9.07 45.9886 9.48L45.5836 9.465C45.7236 9.295 45.8936 9.115 46.0936 8.925C46.3036 8.725 46.5536 8.555 46.8436 8.415C47.1436 8.265 47.4936 8.19 47.8936 8.19C48.2836 8.19 48.6686 8.28 49.0486 8.46C49.4386 8.64 49.7886 8.89 50.0986 9.21C50.4186 9.52 50.6736 9.89 50.8636 10.32C51.0536 10.74 51.1486 11.19 51.1486 11.67C51.1486 12.31 50.9886 12.895 50.6686 13.425C50.3586 13.955 49.9386 14.375 49.4086 14.685C48.8886 14.995 48.3036 15.15 47.6536 15.15ZM47.6536 13.5C47.9736 13.5 48.2586 13.42 48.5086 13.26C48.7686 13.1 48.9736 12.88 49.1236 12.6C49.2736 12.32 49.3486 12.01 49.3486 11.67C49.3486 11.32 49.2736 11.01 49.1236 10.74C48.9736 10.46 48.7686 10.24 48.5086 10.08C48.2586 9.92 47.9736 9.84 47.6536 9.84C47.3336 9.84 47.0436 9.92 46.7836 10.08C46.5336 10.24 46.3336 10.46 46.1836 10.74C46.0336 11.01 45.9586 11.32 45.9586 11.67C45.9586 12.01 46.0336 12.32 46.1836 12.6C46.3336 12.88 46.5336 13.1 46.7836 13.26C47.0436 13.42 47.3336 13.5 47.6536 13.5Z" fill="black"/>
<circle cx="254.047" cy="29.8093" r="2.22458" fill="#212121"/>
<circle cx="218.453" cy="29.8092" r="3.11441" fill="#FFC700"/>
<circle cx="254.047" cy="100.996" r="2.22458" fill="#212121"/>
<circle cx="218.453" cy="100.996" r="3.11441" fill="#FFC700"/>
<circle cx="289.64" cy="29.8092" r="3.11441" fill="#FFC700"/>
<circle cx="289.64" cy="100.996" r="3.11441" fill="#FFC700"/>
<circle cx="289.64" cy="65.4026" r="2.22458" fill="#212121"/>
<circle cx="254.047" cy="65.4026" r="2.22458" fill="#212121"/>
<circle cx="218.453" cy="65.4026" r="2.22458" fill="#212121"/>
<rect x="225.572" y="28.9194" width="21.3559" height="1.77966" rx="0.889831" fill="#FFC700"/>
<rect x="261.165" y="28.9194" width="21.3559" height="1.77966" rx="0.889831" fill="#FFC700"/>
<rect x="225.572" y="100.106" width="21.3559" height="1.77966" rx="0.889831" fill="#FFC700"/>
<rect x="261.165" y="100.106" width="21.3559" height="1.77966" rx="0.889831" fill="#FFC700"/>
<rect x="290.614" y="37.0969" width="21.3559" height="1.77966" rx="0.889831" transform="rotate(90 290.614 37.0969)" fill="#FFC700"/>
<rect x="290.445" y="72.6897" width="21.3559" height="1.77966" rx="0.889831" transform="rotate(90 290.445 72.6897)" fill="#FFC700"/>
<rect x="219.428" y="36.7593" width="21.3559" height="1.77966" rx="0.889831" transform="rotate(90 219.428 36.7593)" fill="#FFC700"/>
<rect x="219.259" y="72.3521" width="21.3559" height="1.77966" rx="0.889831" transform="rotate(90 219.259 72.3521)" fill="#FFC700"/>
<path d="M246.874 9.675L246.844 9.33C247.224 9.5 247.554 9.72 247.834 9.99C248.114 10.26 248.329 10.555 248.479 10.875C248.629 11.195 248.704 11.525 248.704 11.865C248.704 12.435 248.544 12.96 248.224 13.44C247.914 13.91 247.494 14.29 246.964 14.58C246.434 14.86 245.844 15 245.194 15C244.544 15 243.954 14.86 243.424 14.58C242.894 14.29 242.469 13.91 242.149 13.44C241.839 12.96 241.684 12.435 241.684 11.865C241.684 11.405 241.779 11.01 241.969 10.68C242.169 10.34 242.414 10.055 242.704 9.825C243.004 9.595 243.299 9.405 243.589 9.255L243.469 9.675C243.219 9.575 242.974 9.435 242.734 9.255C242.504 9.065 242.314 8.825 242.164 8.535C242.014 8.245 241.939 7.905 241.939 7.515C241.939 6.955 242.084 6.45 242.374 6C242.664 5.54 243.054 5.175 243.544 4.905C244.044 4.635 244.594 4.5 245.194 4.5C245.804 4.5 246.349 4.635 246.829 4.905C247.319 5.175 247.709 5.54 247.999 6C248.289 6.45 248.434 6.955 248.434 7.515C248.434 7.945 248.349 8.305 248.179 8.595C248.009 8.885 247.804 9.115 247.564 9.285C247.324 9.455 247.094 9.585 246.874 9.675ZM243.739 7.545C243.739 7.815 243.799 8.055 243.919 8.265C244.049 8.475 244.224 8.645 244.444 8.775C244.664 8.895 244.914 8.955 245.194 8.955C245.474 8.955 245.719 8.895 245.929 8.775C246.149 8.645 246.319 8.475 246.439 8.265C246.569 8.055 246.634 7.815 246.634 7.545C246.634 7.145 246.494 6.815 246.214 6.555C245.944 6.285 245.604 6.15 245.194 6.15C244.774 6.15 244.424 6.285 244.144 6.555C243.874 6.815 243.739 7.145 243.739 7.545ZM245.194 13.35C245.674 13.35 246.079 13.205 246.409 12.915C246.739 12.615 246.904 12.255 246.904 11.835C246.904 11.545 246.829 11.285 246.679 11.055C246.529 10.825 246.324 10.645 246.064 10.515C245.804 10.375 245.514 10.305 245.194 10.305C244.874 10.305 244.584 10.375 244.324 10.515C244.064 10.645 243.859 10.825 243.709 11.055C243.559 11.285 243.484 11.545 243.484 11.835C243.484 12.255 243.649 12.615 243.979 12.915C244.309 13.205 244.714 13.35 245.194 13.35ZM250.562 17.01C250.392 17.01 250.217 16.94 250.037 16.8C249.857 16.66 249.767 16.48 249.767 16.26C249.767 16.14 249.797 16.02 249.857 15.9L255.947 3.435C256.017 3.295 256.112 3.185 256.232 3.105C256.352 3.025 256.477 2.985 256.607 2.985C256.777 2.985 256.947 3.055 257.117 3.195C257.297 3.325 257.387 3.505 257.387 3.735C257.387 3.855 257.357 3.975 257.297 4.095L251.222 16.56C251.152 16.7 251.057 16.81 250.937 16.89C250.827 16.97 250.702 17.01 250.562 17.01ZM262.103 15.15C261.563 15.15 261.073 15.04 260.633 14.82C260.203 14.59 259.833 14.28 259.523 13.89C259.223 13.5 258.988 13.06 258.818 12.57C258.658 12.08 258.578 11.575 258.578 11.055C258.578 10.715 258.613 10.305 258.683 9.825C258.763 9.345 258.898 8.84 259.088 8.31C259.278 7.78 259.543 7.265 259.883 6.765C260.223 6.265 260.653 5.815 261.173 5.415C261.703 5.015 262.348 4.71 263.108 4.5C263.228 4.47 263.343 4.455 263.453 4.455C263.683 4.455 263.888 4.515 264.068 4.635C264.258 4.755 264.353 4.975 264.353 5.295C264.353 5.515 264.278 5.71 264.128 5.88C263.988 6.04 263.798 6.155 263.558 6.225C263.218 6.325 262.878 6.475 262.538 6.675C262.208 6.865 261.898 7.1 261.608 7.38C261.328 7.66 261.083 7.98 260.873 8.34C260.673 8.69 260.528 9.07 260.438 9.48L260.033 9.465C260.173 9.295 260.343 9.115 260.543 8.925C260.753 8.725 261.003 8.555 261.293 8.415C261.593 8.265 261.943 8.19 262.343 8.19C262.733 8.19 263.118 8.28 263.498 8.46C263.888 8.64 264.238 8.89 264.548 9.21C264.868 9.52 265.123 9.89 265.313 10.32C265.503 10.74 265.598 11.19 265.598 11.67C265.598 12.31 265.438 12.895 265.118 13.425C264.808 13.955 264.388 14.375 263.858 14.685C263.338 14.995 262.753 15.15 262.103 15.15ZM262.103 13.5C262.423 13.5 262.708 13.42 262.958 13.26C263.218 13.1 263.423 12.88 263.573 12.6C263.723 12.32 263.798 12.01 263.798 11.67C263.798 11.32 263.723 11.01 263.573 10.74C263.423 10.46 263.218 10.24 262.958 10.08C262.708 9.92 262.423 9.84 262.103 9.84C261.783 9.84 261.493 9.92 261.233 10.08C260.983 10.24 260.783 10.46 260.633 10.74C260.483 11.01 260.408 11.32 260.408 11.67C260.408 12.01 260.483 12.32 260.633 12.6C260.783 12.88 260.983 13.1 261.233 13.26C261.493 13.42 261.783 13.5 262.103 13.5Z" fill="black"/>
<circle cx="148.157" cy="29.8093" r="2.22458" fill="#212121"/>
<circle cx="112.563" cy="29.8092" r="3.11441" fill="#FFC700"/>
<circle cx="148.157" cy="100.996" r="2.22458" fill="#212121"/>
<circle cx="112.563" cy="100.996" r="3.11441" fill="#FFC700"/>
<circle cx="183.75" cy="29.8092" r="3.11441" fill="#FFC700"/>
<circle cx="183.75" cy="100.996" r="3.11441" fill="#FFC700"/>
<circle cx="183.75" cy="65.4026" r="2.22458" fill="#212121"/>
<circle cx="148.157" cy="65.4026" r="2.22458" fill="#212121"/>
<circle cx="112.563" cy="65.4026" r="2.22458" fill="#212121"/>
<rect x="119.682" y="28.9194" width="21.3559" height="1.77966" rx="0.889831" fill="#FFC700"/>
<rect x="155.275" y="28.9194" width="21.3559" height="1.77966" rx="0.889831" fill="#FFC700"/>
<rect x="119.682" y="64.5127" width="21.3559" height="1.77966" rx="0.889831" fill="#FFC700"/>
<rect x="155.275" y="64.5127" width="21.3559" height="1.77966" rx="0.889831" fill="#FFC700"/>
<rect x="119.682" y="100.106" width="21.3559" height="1.77966" rx="0.889831" fill="#FFC700"/>
<rect x="155.275" y="100.106" width="21.3559" height="1.77966" rx="0.889831" fill="#FFC700"/>
<rect x="184.724" y="37.0969" width="21.3559" height="1.77966" rx="0.889831" transform="rotate(90 184.724 37.0969)" fill="#FFC700"/>
<rect x="184.555" y="72.6897" width="21.3559" height="1.77966" rx="0.889831" transform="rotate(90 184.555 72.6897)" fill="#FFC700"/>
<rect x="149.131" y="36.9282" width="21.3559" height="1.77966" rx="0.889831" transform="rotate(90 149.131 36.9282)" fill="#FFC700"/>
<rect x="148.962" y="72.521" width="21.3559" height="1.77966" rx="0.889831" transform="rotate(90 148.962 72.521)" fill="#FFC700"/>
<rect x="113.538" y="36.7593" width="21.3559" height="1.77966" rx="0.889831" transform="rotate(90 113.538 36.7593)" fill="#FFC700"/>
<rect x="113.369" y="72.3521" width="21.3559" height="1.77966" rx="0.889831" transform="rotate(90 113.369 72.3521)" fill="#FFC700"/>
<path d="M136.578 15C136.298 15 136.068 14.915 135.888 14.745C135.708 14.565 135.618 14.345 135.618 14.085V6.525L135.828 6.855L134.733 7.665C134.593 7.775 134.418 7.83 134.208 7.83C133.968 7.83 133.758 7.74 133.578 7.56C133.398 7.38 133.308 7.165 133.308 6.915C133.308 6.595 133.463 6.335 133.773 6.135L135.933 4.695C136.033 4.625 136.143 4.575 136.263 4.545C136.393 4.515 136.513 4.5 136.623 4.5C136.913 4.5 137.143 4.59 137.313 4.77C137.483 4.94 137.568 5.155 137.568 5.415V14.085C137.568 14.345 137.473 14.565 137.283 14.745C137.103 14.915 136.868 15 136.578 15ZM145.708 13.35C145.948 13.35 146.148 13.43 146.308 13.59C146.468 13.75 146.548 13.95 146.548 14.19C146.548 14.42 146.468 14.615 146.308 14.775C146.148 14.925 145.948 15 145.708 15H140.608C140.348 15 140.143 14.92 139.993 14.76C139.843 14.6 139.768 14.395 139.768 14.145C139.768 13.895 139.858 13.675 140.038 13.485L143.308 9.99C143.678 9.59 143.968 9.18 144.178 8.76C144.398 8.34 144.508 7.975 144.508 7.665C144.508 7.165 144.363 6.765 144.073 6.465C143.783 6.155 143.398 6 142.918 6C142.728 6 142.533 6.045 142.333 6.135C142.133 6.225 141.938 6.35 141.748 6.51C141.568 6.67 141.398 6.855 141.238 7.065C141.118 7.225 140.998 7.325 140.878 7.365C140.758 7.405 140.648 7.425 140.548 7.425C140.328 7.425 140.123 7.345 139.933 7.185C139.753 7.015 139.663 6.82 139.663 6.6C139.663 6.43 139.718 6.265 139.828 6.105C139.948 5.945 140.093 5.78 140.263 5.61C140.513 5.36 140.793 5.14 141.103 4.95C141.413 4.76 141.733 4.615 142.063 4.515C142.393 4.405 142.713 4.35 143.023 4.35C143.693 4.35 144.273 4.485 144.763 4.755C145.263 5.015 145.648 5.39 145.918 5.88C146.188 6.36 146.323 6.93 146.323 7.59C146.323 8.14 146.158 8.755 145.828 9.435C145.508 10.105 145.073 10.735 144.523 11.325L142.498 13.485L142.333 13.35H145.708ZM148.638 17.01C148.468 17.01 148.293 16.94 148.113 16.8C147.933 16.66 147.843 16.48 147.843 16.26C147.843 16.14 147.873 16.02 147.933 15.9L154.023 3.435C154.093 3.295 154.188 3.185 154.308 3.105C154.428 3.025 154.553 2.985 154.683 2.985C154.853 2.985 155.023 3.055 155.193 3.195C155.373 3.325 155.463 3.505 155.463 3.735C155.463 3.855 155.433 3.975 155.373 4.095L149.298 16.56C149.228 16.7 149.133 16.81 149.013 16.89C148.903 16.97 148.778 17.01 148.638 17.01ZM160.179 15.15C159.639 15.15 159.149 15.04 158.709 14.82C158.279 14.59 157.909 14.28 157.599 13.89C157.299 13.5 157.064 13.06 156.894 12.57C156.734 12.08 156.654 11.575 156.654 11.055C156.654 10.715 156.689 10.305 156.759 9.825C156.839 9.345 156.974 8.84 157.164 8.31C157.354 7.78 157.619 7.265 157.959 6.765C158.299 6.265 158.729 5.815 159.249 5.415C159.779 5.015 160.424 4.71 161.184 4.5C161.304 4.47 161.419 4.455 161.529 4.455C161.759 4.455 161.964 4.515 162.144 4.635C162.334 4.755 162.429 4.975 162.429 5.295C162.429 5.515 162.354 5.71 162.204 5.88C162.064 6.04 161.874 6.155 161.634 6.225C161.294 6.325 160.954 6.475 160.614 6.675C160.284 6.865 159.974 7.1 159.684 7.38C159.404 7.66 159.159 7.98 158.949 8.34C158.749 8.69 158.604 9.07 158.514 9.48L158.109 9.465C158.249 9.295 158.419 9.115 158.619 8.925C158.829 8.725 159.079 8.555 159.369 8.415C159.669 8.265 160.019 8.19 160.419 8.19C160.809 8.19 161.194 8.28 161.574 8.46C161.964 8.64 162.314 8.89 162.624 9.21C162.944 9.52 163.199 9.89 163.389 10.32C163.579 10.74 163.674 11.19 163.674 11.67C163.674 12.31 163.514 12.895 163.194 13.425C162.884 13.955 162.464 14.375 161.934 14.685C161.414 14.995 160.829 15.15 160.179 15.15ZM160.179 13.5C160.499 13.5 160.784 13.42 161.034 13.26C161.294 13.1 161.499 12.88 161.649 12.6C161.799 12.32 161.874 12.01 161.874 11.67C161.874 11.32 161.799 11.01 161.649 10.74C161.499 10.46 161.294 10.24 161.034 10.08C160.784 9.92 160.499 9.84 160.179 9.84C159.859 9.84 159.569 9.92 159.309 10.08C159.059 10.24 158.859 10.46 158.709 10.74C158.559 11.01 158.484 11.32 158.484 11.67C158.484 12.01 158.559 12.32 158.709 12.6C158.859 12.88 159.059 13.1 159.309 13.26C159.569 13.42 159.859 13.5 160.179 13.5Z" fill="black"/>
</svg>
