<svg width="240" height="302" viewBox="0 0 240 302" fill="none" xmlns="http://www.w3.org/2000/svg">
<circle cx="43.5" cy="31.5" r="2.5" fill="#212121"/>
<circle cx="3.5" cy="31.5" r="3.5" fill="#FFC700"/>
<circle cx="43.5" cy="111.5" r="2.5" fill="#212121"/>
<circle cx="3.5" cy="111.5" r="3.5" fill="#FFC700"/>
<circle cx="83.5" cy="31.5" r="3.5" fill="#FFC700"/>
<circle cx="83.5" cy="111.5" r="3.5" fill="#FFC700"/>
<circle cx="83.5" cy="71.5" r="2.5" fill="#212121"/>
<circle cx="43.5" cy="71.5" r="2.5" fill="#212121"/>
<circle cx="3.5" cy="71.5" r="2.5" fill="#212121"/>
<rect x="84.5945" y="39.6899" width="24" height="2" rx="1" transform="rotate(90 84.5945 39.6899)" fill="#FFC700"/>
<rect x="84.4048" y="79.6895" width="24" height="2" rx="1" transform="rotate(90 84.4048 79.6895)" fill="#FFC700"/>
<rect x="4.59521" y="39.3105" width="24" height="2" rx="1" transform="rotate(90 4.59521 39.3105)" fill="#FFC700"/>
<rect x="4.40552" y="79.3101" width="24" height="2" rx="1" transform="rotate(90 4.40552 79.3101)" fill="#FFC700"/>
<path d="M38.8811 15C38.6311 15 38.4211 14.915 38.2511 14.745C38.0811 14.565 37.9961 14.345 37.9961 14.085V7.035L38.3111 7.11L35.4161 10.695L35.3411 10.5H40.6511C40.8911 10.5 41.0911 10.58 41.2511 10.74C41.4111 10.9 41.4911 11.1 41.4911 11.34C41.4911 11.57 41.4111 11.765 41.2511 11.925C41.0911 12.075 40.8911 12.15 40.6511 12.15H34.0961C33.8861 12.15 33.6811 12.065 33.4811 11.895C33.2911 11.725 33.1961 11.515 33.1961 11.265C33.1961 11.045 33.2711 10.845 33.4211 10.665L38.1611 4.86C38.2411 4.75 38.3461 4.665 38.4761 4.605C38.6061 4.535 38.7511 4.5 38.9111 4.5C39.1711 4.5 39.3811 4.59 39.5411 4.77C39.7111 4.94 39.7961 5.155 39.7961 5.415V14.085C39.7961 14.345 39.7061 14.565 39.5261 14.745C39.3561 14.915 39.1411 15 38.8811 15ZM43.1244 17.01C42.9544 17.01 42.7794 16.94 42.5994 16.8C42.4194 16.66 42.3294 16.48 42.3294 16.26C42.3294 16.14 42.3594 16.02 42.4194 15.9L48.5094 3.435C48.5794 3.295 48.6744 3.185 48.7944 3.105C48.9144 3.025 49.0394 2.985 49.1694 2.985C49.3394 2.985 49.5094 3.055 49.6794 3.195C49.8594 3.325 49.9494 3.505 49.9494 3.735C49.9494 3.855 49.9194 3.975 49.8594 4.095L43.7844 16.56C43.7144 16.7 43.6194 16.81 43.4994 16.89C43.3894 16.97 43.2644 17.01 43.1244 17.01ZM56.2248 15C55.9748 15 55.7648 14.915 55.5948 14.745C55.4248 14.565 55.3398 14.345 55.3398 14.085V7.035L55.6548 7.11L52.7598 10.695L52.6848 10.5H57.9948C58.2348 10.5 58.4348 10.58 58.5948 10.74C58.7548 10.9 58.8348 11.1 58.8348 11.34C58.8348 11.57 58.7548 11.765 58.5948 11.925C58.4348 12.075 58.2348 12.15 57.9948 12.15H51.4398C51.2298 12.15 51.0248 12.065 50.8248 11.895C50.6348 11.725 50.5398 11.515 50.5398 11.265C50.5398 11.045 50.6148 10.845 50.7648 10.665L55.5048 4.86C55.5848 4.75 55.6898 4.665 55.8198 4.605C55.9498 4.535 56.0948 4.5 56.2548 4.5C56.5148 4.5 56.7248 4.59 56.8848 4.77C57.0548 4.94 57.1398 5.155 57.1398 5.415V14.085C57.1398 14.345 57.0498 14.565 56.8698 14.745C56.6998 14.915 56.4848 15 56.2248 15Z" fill="black"/>
<circle cx="196.5" cy="31.5" r="2.5" fill="#212121"/>
<circle cx="156.5" cy="31.5" r="3.5" fill="#FFC700"/>
<circle cx="196.5" cy="111.5" r="2.5" fill="#212121"/>
<circle cx="156.5" cy="111.5" r="3.5" fill="#FFC700"/>
<circle cx="236.5" cy="31.5" r="3.5" fill="#FFC700"/>
<circle cx="236.5" cy="111.5" r="3.5" fill="#FFC700"/>
<circle cx="236.5" cy="71.5" r="2.5" fill="#212121"/>
<circle cx="196.5" cy="71.5" r="2.5" fill="#212121"/>
<circle cx="156.5" cy="71.5" r="2.5" fill="#212121"/>
<rect x="164.5" y="70.5" width="24" height="2" rx="1" fill="#FFC700"/>
<rect x="204.5" y="70.5" width="24" height="2" rx="1" fill="#FFC700"/>
<path d="M190.194 13.35C190.434 13.35 190.634 13.43 190.794 13.59C190.954 13.75 191.034 13.95 191.034 14.19C191.034 14.42 190.954 14.615 190.794 14.775C190.634 14.925 190.434 15 190.194 15H185.094C184.834 15 184.629 14.92 184.479 14.76C184.329 14.6 184.254 14.395 184.254 14.145C184.254 13.895 184.344 13.675 184.524 13.485L187.794 9.99C188.164 9.59 188.454 9.18 188.664 8.76C188.884 8.34 188.994 7.975 188.994 7.665C188.994 7.165 188.849 6.765 188.559 6.465C188.269 6.155 187.884 6 187.404 6C187.214 6 187.019 6.045 186.819 6.135C186.619 6.225 186.424 6.35 186.234 6.51C186.054 6.67 185.884 6.855 185.724 7.065C185.604 7.225 185.484 7.325 185.364 7.365C185.244 7.405 185.134 7.425 185.034 7.425C184.814 7.425 184.609 7.345 184.419 7.185C184.239 7.015 184.149 6.82 184.149 6.6C184.149 6.43 184.204 6.265 184.314 6.105C184.434 5.945 184.579 5.78 184.749 5.61C184.999 5.36 185.279 5.14 185.589 4.95C185.899 4.76 186.219 4.615 186.549 4.515C186.879 4.405 187.199 4.35 187.509 4.35C188.179 4.35 188.759 4.485 189.249 4.755C189.749 5.015 190.134 5.39 190.404 5.88C190.674 6.36 190.809 6.93 190.809 7.59C190.809 8.14 190.644 8.755 190.314 9.435C189.994 10.105 189.559 10.735 189.009 11.325L186.984 13.485L186.819 13.35H190.194ZM193.124 17.01C192.954 17.01 192.779 16.94 192.599 16.8C192.419 16.66 192.329 16.48 192.329 16.26C192.329 16.14 192.359 16.02 192.419 15.9L198.509 3.435C198.579 3.295 198.674 3.185 198.794 3.105C198.914 3.025 199.039 2.985 199.169 2.985C199.339 2.985 199.509 3.055 199.679 3.195C199.859 3.325 199.949 3.505 199.949 3.735C199.949 3.855 199.919 3.975 199.859 4.095L193.784 16.56C193.714 16.7 193.619 16.81 193.499 16.89C193.389 16.97 193.264 17.01 193.124 17.01ZM207.26 13.35C207.5 13.35 207.7 13.43 207.86 13.59C208.02 13.75 208.1 13.95 208.1 14.19C208.1 14.42 208.02 14.615 207.86 14.775C207.7 14.925 207.5 15 207.26 15H202.16C201.9 15 201.695 14.92 201.545 14.76C201.395 14.6 201.32 14.395 201.32 14.145C201.32 13.895 201.41 13.675 201.59 13.485L204.86 9.99C205.23 9.59 205.52 9.18 205.73 8.76C205.95 8.34 206.06 7.975 206.06 7.665C206.06 7.165 205.915 6.765 205.625 6.465C205.335 6.155 204.95 6 204.47 6C204.28 6 204.085 6.045 203.885 6.135C203.685 6.225 203.49 6.35 203.3 6.51C203.12 6.67 202.95 6.855 202.79 7.065C202.67 7.225 202.55 7.325 202.43 7.365C202.31 7.405 202.2 7.425 202.1 7.425C201.88 7.425 201.675 7.345 201.485 7.185C201.305 7.015 201.215 6.82 201.215 6.6C201.215 6.43 201.27 6.265 201.38 6.105C201.5 5.945 201.645 5.78 201.815 5.61C202.065 5.36 202.345 5.14 202.655 4.95C202.965 4.76 203.285 4.615 203.615 4.515C203.945 4.405 204.265 4.35 204.575 4.35C205.245 4.35 205.825 4.485 206.315 4.755C206.815 5.015 207.2 5.39 207.47 5.88C207.74 6.36 207.875 6.93 207.875 7.59C207.875 8.14 207.71 8.755 207.38 9.435C207.06 10.105 206.625 10.735 206.075 11.325L204.05 13.485L203.885 13.35H207.26Z" fill="black"/>
<circle cx="120.5" cy="218.5" r="2.5" fill="#212121"/>
<circle cx="80.5" cy="218.5" r="3.5" fill="#FFC700"/>
<circle cx="120.5" cy="298.5" r="2.5" fill="#212121"/>
<circle cx="80.5" cy="298.5" r="3.5" fill="#FFC700"/>
<circle cx="160.5" cy="218.5" r="3.5" fill="#FFC700"/>
<circle cx="160.5" cy="298.5" r="3.5" fill="#FFC700"/>
<circle cx="160.5" cy="258.5" r="2.5" fill="#212121"/>
<circle cx="120.5" cy="258.5" r="2.5" fill="#212121"/>
<circle cx="80.5" cy="258.5" r="2.5" fill="#212121"/>
<rect x="88.5" y="257.5" width="24" height="2" rx="1" fill="#FFC700"/>
<rect x="128.5" y="257.5" width="24" height="2" rx="1" fill="#FFC700"/>
<rect x="161.594" y="226.69" width="24" height="2" rx="1" transform="rotate(90 161.594 226.69)" fill="#FFC700"/>
<rect x="161.405" y="266.689" width="24" height="2" rx="1" transform="rotate(90 161.405 266.689)" fill="#FFC700"/>
<rect x="81.5952" y="226.311" width="24" height="2" rx="1" transform="rotate(90 81.5952 226.311)" fill="#FFC700"/>
<rect x="81.4055" y="266.31" width="24" height="2" rx="1" transform="rotate(90 81.4055 266.31)" fill="#FFC700"/>
<path d="M114.483 163.84C113.983 163.84 113.563 163.68 113.223 163.36C112.883 163.02 112.713 162.62 112.713 162.16C112.713 161.7 112.883 161.32 113.223 161.02C113.563 160.7 113.983 160.54 114.483 160.54H126.513C127.033 160.54 127.453 160.7 127.773 161.02C128.113 161.32 128.283 161.7 128.283 162.16C128.283 162.62 128.113 163.02 127.773 163.36C127.453 163.68 127.033 163.84 126.513 163.84H114.483ZM114.483 169.66C113.983 169.66 113.563 169.5 113.223 169.18C112.883 168.84 112.713 168.44 112.713 167.98C112.713 167.52 112.883 167.14 113.223 166.84C113.563 166.52 113.983 166.36 114.483 166.36H126.513C127.033 166.36 127.453 166.52 127.773 166.84C128.113 167.14 128.283 167.52 128.283 167.98C128.283 168.44 128.113 168.84 127.773 169.18C127.453 169.5 127.033 169.66 126.513 169.66H114.483Z" fill="black"/>
</svg>
