<svg width="152" height="153" viewBox="0 0 152 153" fill="none" xmlns="http://www.w3.org/2000/svg">
<rect x="1.5" y="1.5" width="149" height="150" rx="1.5" stroke="#FFC700" stroke-width="3"/>
<circle cx="75.5" cy="39.5" r="2.5" fill="#212121"/>
<circle cx="35.5" cy="39.5" r="3.5" fill="#FFC700"/>
<circle cx="75.5" cy="119.5" r="2.5" fill="#212121"/>
<circle cx="35.5" cy="119.5" r="3.5" fill="#FFC700"/>
<circle cx="115.5" cy="39.5" r="3.5" fill="#FFC700"/>
<circle cx="115.5" cy="119.5" r="3.5" fill="#FFC700"/>
<circle cx="115.5" cy="79.5" r="2.5" fill="#212121"/>
<circle cx="75.5" cy="79.5" r="2.5" fill="#212121"/>
<circle cx="35.5" cy="79.5" r="2.5" fill="#212121"/>
<rect x="43.5" y="78.5" width="24" height="2" rx="1" fill="#FFC700"/>
<rect x="83.5" y="78.5" width="24" height="2" rx="1" fill="#FFC700"/>
<rect x="116.594" y="47.6899" width="24" height="2" rx="1" transform="rotate(90 116.594 47.6899)" fill="#FFC700"/>
<rect x="116.405" y="87.6895" width="24" height="2" rx="1" transform="rotate(90 116.405 87.6895)" fill="#FFC700"/>
<rect x="36.5952" y="47.3105" width="24" height="2" rx="1" transform="rotate(90 36.5952 47.3105)" fill="#FFC700"/>
<rect x="36.4055" y="87.3101" width="24" height="2" rx="1" transform="rotate(90 36.4055 87.3101)" fill="#FFC700"/>
<path d="M67.7213 23.15C67.1813 23.15 66.6913 23.04 66.2513 22.82C65.8213 22.59 65.4513 22.28 65.1413 21.89C64.8413 21.5 64.6063 21.06 64.4363 20.57C64.2763 20.08 64.1963 19.575 64.1963 19.055C64.1963 18.715 64.2313 18.305 64.3013 17.825C64.3813 17.345 64.5163 16.84 64.7063 16.31C64.8963 15.78 65.1613 15.265 65.5013 14.765C65.8413 14.265 66.2713 13.815 66.7913 13.415C67.3213 13.015 67.9663 12.71 68.7263 12.5C68.8463 12.47 68.9613 12.455 69.0713 12.455C69.3013 12.455 69.5063 12.515 69.6863 12.635C69.8763 12.755 69.9713 12.975 69.9713 13.295C69.9713 13.515 69.8963 13.71 69.7463 13.88C69.6063 14.04 69.4163 14.155 69.1763 14.225C68.8363 14.325 68.4963 14.475 68.1563 14.675C67.8263 14.865 67.5163 15.1 67.2263 15.38C66.9463 15.66 66.7013 15.98 66.4913 16.34C66.2913 16.69 66.1463 17.07 66.0563 17.48L65.6513 17.465C65.7913 17.295 65.9613 17.115 66.1613 16.925C66.3713 16.725 66.6213 16.555 66.9113 16.415C67.2113 16.265 67.5613 16.19 67.9613 16.19C68.3513 16.19 68.7363 16.28 69.1163 16.46C69.5063 16.64 69.8563 16.89 70.1663 17.21C70.4863 17.52 70.7413 17.89 70.9313 18.32C71.1213 18.74 71.2163 19.19 71.2163 19.67C71.2163 20.31 71.0563 20.895 70.7363 21.425C70.4263 21.955 70.0063 22.375 69.4763 22.685C68.9563 22.995 68.3713 23.15 67.7213 23.15ZM67.7213 21.5C68.0413 21.5 68.3263 21.42 68.5763 21.26C68.8363 21.1 69.0413 20.88 69.1913 20.6C69.3413 20.32 69.4163 20.01 69.4163 19.67C69.4163 19.32 69.3413 19.01 69.1913 18.74C69.0413 18.46 68.8363 18.24 68.5763 18.08C68.3263 17.92 68.0413 17.84 67.7213 17.84C67.4013 17.84 67.1113 17.92 66.8513 18.08C66.6013 18.24 66.4013 18.46 66.2513 18.74C66.1013 19.01 66.0263 19.32 66.0263 19.67C66.0263 20.01 66.1013 20.32 66.2513 20.6C66.4013 20.88 66.6013 21.1 66.8513 21.26C67.1113 21.42 67.4013 21.5 67.7213 21.5ZM72.9973 25.01C72.8273 25.01 72.6523 24.94 72.4723 24.8C72.2923 24.66 72.2023 24.48 72.2023 24.26C72.2023 24.14 72.2323 24.02 72.2923 23.9L78.3823 11.435C78.4523 11.295 78.5473 11.185 78.6673 11.105C78.7873 11.025 78.9123 10.985 79.0423 10.985C79.2123 10.985 79.3823 11.055 79.5523 11.195C79.7323 11.325 79.8223 11.505 79.8223 11.735C79.8223 11.855 79.7923 11.975 79.7323 12.095L73.6573 24.56C73.5873 24.7 73.4923 24.81 73.3723 24.89C73.2623 24.97 73.1373 25.01 72.9973 25.01ZM84.5377 23.15C83.9977 23.15 83.5077 23.04 83.0677 22.82C82.6377 22.59 82.2677 22.28 81.9577 21.89C81.6577 21.5 81.4227 21.06 81.2527 20.57C81.0927 20.08 81.0127 19.575 81.0127 19.055C81.0127 18.715 81.0477 18.305 81.1177 17.825C81.1977 17.345 81.3327 16.84 81.5227 16.31C81.7127 15.78 81.9777 15.265 82.3177 14.765C82.6577 14.265 83.0877 13.815 83.6077 13.415C84.1377 13.015 84.7827 12.71 85.5427 12.5C85.6627 12.47 85.7777 12.455 85.8877 12.455C86.1177 12.455 86.3227 12.515 86.5027 12.635C86.6927 12.755 86.7877 12.975 86.7877 13.295C86.7877 13.515 86.7127 13.71 86.5627 13.88C86.4227 14.04 86.2327 14.155 85.9927 14.225C85.6527 14.325 85.3127 14.475 84.9727 14.675C84.6427 14.865 84.3327 15.1 84.0427 15.38C83.7627 15.66 83.5177 15.98 83.3077 16.34C83.1077 16.69 82.9627 17.07 82.8727 17.48L82.4677 17.465C82.6077 17.295 82.7777 17.115 82.9777 16.925C83.1877 16.725 83.4377 16.555 83.7277 16.415C84.0277 16.265 84.3777 16.19 84.7777 16.19C85.1677 16.19 85.5527 16.28 85.9327 16.46C86.3227 16.64 86.6727 16.89 86.9827 17.21C87.3027 17.52 87.5577 17.89 87.7477 18.32C87.9377 18.74 88.0327 19.19 88.0327 19.67C88.0327 20.31 87.8727 20.895 87.5527 21.425C87.2427 21.955 86.8227 22.375 86.2927 22.685C85.7727 22.995 85.1877 23.15 84.5377 23.15ZM84.5377 21.5C84.8577 21.5 85.1427 21.42 85.3927 21.26C85.6527 21.1 85.8577 20.88 86.0077 20.6C86.1577 20.32 86.2327 20.01 86.2327 19.67C86.2327 19.32 86.1577 19.01 86.0077 18.74C85.8577 18.46 85.6527 18.24 85.3927 18.08C85.1427 17.92 84.8577 17.84 84.5377 17.84C84.2177 17.84 83.9277 17.92 83.6677 18.08C83.4177 18.24 83.2177 18.46 83.0677 18.74C82.9177 19.01 82.8427 19.32 82.8427 19.67C82.8427 20.01 82.9177 20.32 83.0677 20.6C83.2177 20.88 83.4177 21.1 83.6677 21.26C83.9277 21.42 84.2177 21.5 84.5377 21.5Z" fill="black"/>
</svg>
