<svg width="145" height="29" viewBox="0 0 145 29" fill="none" xmlns="http://www.w3.org/2000/svg">
<path d="M0 27.0883V0.560473H11.5452C12.7408 0.560473 13.8368 0.80956 14.8331 1.30773C15.8295 1.80591 16.6888 2.46599 17.4112 3.28798C18.1585 4.10997 18.7314 5.03159 19.1299 6.05285C19.5533 7.07411 19.7651 8.12027 19.7651 9.19135C19.7651 10.3621 19.5533 11.4829 19.1299 12.554C18.7065 13.6251 18.0962 14.5467 17.2991 15.3189C16.5269 16.0911 15.6178 16.6515 14.5716 17.0002L20.8112 27.0883H16.1035L10.3496 17.8596H4.18466V27.0883H0ZM4.18466 14.1606H11.5078C12.28 14.1606 12.965 13.9365 13.5628 13.4881C14.1606 13.0397 14.6339 12.4419 14.9826 11.6947C15.3313 10.9225 15.5057 10.0881 15.5057 9.19135C15.5057 8.26972 15.3064 7.44774 14.9079 6.72538C14.5093 5.97812 13.9862 5.38031 13.3386 4.93195C12.7159 4.4836 12.0309 4.25942 11.2837 4.25942H4.18466V14.1606Z" fill="black"/>
<path d="M35.6511 27.2751C33.7331 27.2751 32.002 26.9015 30.4576 26.1542C28.9133 25.4069 27.5807 24.3981 26.4598 23.1278C25.3389 21.8325 24.4671 20.3878 23.8444 18.7937C23.2466 17.1746 22.9476 15.5182 22.9476 13.8244C22.9476 12.0559 23.2715 10.3745 23.9191 8.78035C24.5667 7.16129 25.4634 5.72903 26.6092 4.4836C27.755 3.21325 29.1001 2.2169 30.6444 1.49455C32.2137 0.74729 33.9075 0.373657 35.7258 0.373657C37.6189 0.373657 39.3376 0.759744 40.8819 1.53191C42.4512 2.30408 43.7838 3.3378 44.8798 4.63305C46.0007 5.9283 46.86 7.37301 47.4578 8.96717C48.0805 10.5613 48.3919 12.1928 48.3919 13.8617C48.3919 15.6303 48.0681 17.324 47.4205 18.9431C46.7978 20.5373 45.9135 21.9695 44.7677 23.2399C43.6219 24.4853 42.2644 25.4692 40.6951 26.1916C39.1508 26.9139 37.4694 27.2751 35.6511 27.2751ZM27.207 13.8244C27.207 15.0698 27.4063 16.2779 27.8048 17.4486C28.2034 18.6193 28.7638 19.6655 29.4862 20.5871C30.2334 21.4838 31.1302 22.1937 32.1763 22.7168C33.2225 23.2399 34.3932 23.5014 35.6885 23.5014C37.0335 23.5014 38.2292 23.2274 39.2753 22.6794C40.3215 22.1314 41.1933 21.3966 41.8907 20.475C42.6131 19.5285 43.1611 18.4823 43.5347 17.3365C43.9083 16.1658 44.0952 14.9951 44.0952 13.8244C44.0952 12.5789 43.8959 11.3833 43.4973 10.2375C43.1237 9.0668 42.5633 8.03309 41.816 7.13638C41.0687 6.21475 40.172 5.4924 39.1259 4.96932C38.1046 4.44623 36.9588 4.18469 35.6885 4.18469C34.3434 4.18469 33.1478 4.45869 32.1016 5.00668C31.0554 5.55467 30.1712 6.28948 29.4488 7.2111C28.7265 8.13273 28.166 9.16644 27.7675 10.3122C27.3939 11.458 27.207 12.6288 27.207 13.8244Z" fill="black"/>
<path d="M63.7837 27.2751C61.6665 27.2751 59.8731 26.9139 58.4035 26.1916C56.9588 25.4692 55.788 24.4853 54.8913 23.2399C54.0195 21.9944 53.3719 20.5746 52.9485 18.9805C52.5499 17.3863 52.3506 15.7299 52.3506 14.0112V0.560473H56.5353V14.0112C56.5353 15.2317 56.6599 16.4149 56.9089 17.5607C57.158 18.6816 57.5566 19.6904 58.1046 20.5871C58.6525 21.4838 59.3874 22.1937 60.309 22.7168C61.2555 23.2399 62.4138 23.5014 63.7837 23.5014C65.1786 23.5014 66.3369 23.2399 67.2585 22.7168C68.205 22.1688 68.9398 21.4464 69.4629 20.5497C70.0109 19.6281 70.4095 18.6068 70.6585 17.486C70.9076 16.3651 71.0322 15.2068 71.0322 14.0112V0.560473H75.2542V14.0112C75.2542 15.8295 75.03 17.5482 74.5817 19.1673C74.1582 20.7614 73.4857 22.1688 72.5641 23.3893C71.6674 24.5849 70.4966 25.5315 69.0519 26.2289C67.6072 26.9264 65.8512 27.2751 63.7837 27.2751Z" fill="black"/>
<path d="M100.286 4.25942H91.468V27.0883H87.246V4.25942H78.391V0.560473H100.286V4.25942Z" fill="black"/>
<path d="M122.039 23.3893V27.0883H103.843V0.560473H121.703V4.25942H108.028V11.8068H119.872V15.2815H108.028V23.3893H122.039Z" fill="black"/>
<path d="M142.048 6.80011C141.799 6.52611 141.438 6.23966 140.965 5.94076C140.492 5.61694 139.931 5.31804 139.283 5.04404C138.636 4.77005 137.938 4.54587 137.191 4.37151C136.444 4.19715 135.672 4.10997 134.875 4.10997C133.131 4.10997 131.836 4.43378 130.989 5.08141C130.142 5.72903 129.719 6.62575 129.719 7.77155C129.719 8.61845 129.955 9.29098 130.428 9.78916C130.902 10.2624 131.624 10.661 132.595 10.9848C133.567 11.3086 134.787 11.6573 136.257 12.0309C138.05 12.4544 139.607 12.965 140.927 13.5628C142.248 14.1357 143.256 14.9079 143.954 15.8793C144.651 16.8508 145 18.1336 145 19.7277C145 21.0728 144.751 22.2311 144.253 23.2025C143.755 24.1739 143.057 24.971 142.16 25.5937C141.264 26.1916 140.23 26.6399 139.059 26.9388C137.889 27.2128 136.631 27.3498 135.286 27.3498C133.965 27.3498 132.645 27.2128 131.325 26.9388C130.03 26.6648 128.784 26.2663 127.589 25.7432C126.418 25.1952 125.335 24.5351 124.338 23.7629L126.244 20.1761C126.568 20.4999 127.028 20.8611 127.626 21.2596C128.249 21.6333 128.959 21.9944 129.756 22.3432C130.578 22.6919 131.462 22.9908 132.409 23.2399C133.38 23.464 134.364 23.5761 135.36 23.5761C137.029 23.5761 138.3 23.2897 139.171 22.7168C140.068 22.119 140.516 21.2721 140.516 20.1761C140.516 19.2794 140.23 18.5695 139.657 18.0464C139.084 17.4984 138.25 17.0376 137.154 16.664C136.058 16.2903 134.75 15.9167 133.231 15.5431C131.487 15.0698 130.03 14.5592 128.859 14.0112C127.688 13.4383 126.804 12.7159 126.206 11.8441C125.633 10.9474 125.347 9.81406 125.347 8.44409C125.347 6.70047 125.77 5.23086 126.617 4.03524C127.464 2.81471 128.61 1.90554 130.055 1.30773C131.524 0.685017 133.168 0.373657 134.987 0.373657C136.182 0.373657 137.316 0.510656 138.387 0.784652C139.458 1.03374 140.454 1.38246 141.376 1.83082C142.322 2.27917 143.182 2.7898 143.954 3.3627L142.048 6.80011Z" fill="black"/>
<path d="M50.1256 14.0112C50.1256 21.7493 43.8526 28.0223 36.1145 28.0223C28.3763 28.0223 22.1033 21.7493 22.1033 14.0112C22.1033 6.27301 28.3763 0 36.1145 0C43.8526 0 50.1256 6.27301 50.1256 14.0112Z" fill="#FFC700"/>
<path d="M43.5871 14.0112C43.5871 18.1382 40.2415 21.4838 36.1145 21.4838C31.9875 21.4838 28.6419 18.1382 28.6419 14.0112C28.6419 9.88418 31.9875 6.53857 36.1145 6.53857C40.2415 6.53857 43.5871 9.88418 43.5871 14.0112Z" fill="black"/>
<path d="M50.1256 14.0112C50.1256 21.7493 43.8526 28.0223 36.1145 28.0223C28.3763 28.0223 22.1033 21.7493 22.1033 14.0112C22.1033 6.27301 28.3763 0 36.1145 0C43.8526 0 50.1256 6.27301 50.1256 14.0112Z" fill="#FFC700"/>
<path d="M43.5871 14.0112C43.5871 18.1382 40.2415 21.4838 36.1145 21.4838C31.9875 21.4838 28.6419 18.1382 28.6419 14.0112C28.6419 9.88418 31.9875 6.53857 36.1145 6.53857C40.2415 6.53857 43.5871 9.88418 43.5871 14.0112Z" fill="black"/>
</svg>
