<svg width="124" height="221" viewBox="0 0 124 221" fill="none" xmlns="http://www.w3.org/2000/svg">
<path d="M25.6409 2.16C28.5743 2.16 31.2676 2.56 33.7209 3.36C36.2276 4.10667 38.3876 5.25333 40.2009 6.8C42.0676 8.29333 43.5076 10.16 44.5209 12.4C45.5876 14.5867 46.1209 17.1467 46.1209 20.08C46.1209 22.3733 45.7743 24.6133 45.0809 26.8C44.4409 28.9867 43.3476 30.9867 41.8009 32.8C40.2543 34.56 38.2276 36 35.7209 37.12C33.2676 38.1867 30.2276 38.72 26.6009 38.72H18.0409V60H10.2809V2.16H25.6409ZM26.4409 31.28C28.7343 31.28 30.6276 30.9333 32.1209 30.24C33.6676 29.5467 34.8676 28.6667 35.7209 27.6C36.5743 26.48 37.1876 25.28 37.5609 24C37.9343 22.72 38.1209 21.52 38.1209 20.4C38.1209 19.2267 37.9076 18.0267 37.4809 16.8C37.1076 15.52 36.4676 14.3467 35.5609 13.28C34.7076 12.2133 33.5609 11.3333 32.1209 10.64C30.7343 9.94666 29.0276 9.6 27.0009 9.6H18.0409V31.28H26.4409ZM35.9609 35.68L51.0809 60H42.1209L26.7609 35.92L35.9609 35.68ZM58.1653 31.12C58.1653 27.12 58.912 23.36 60.4053 19.84C61.952 16.2667 64.0853 13.12 66.8053 10.4C69.5253 7.62666 72.6453 5.46666 76.1653 3.92C79.7386 2.32 83.5786 1.52 87.6853 1.52C91.7386 1.52 95.5253 2.32 99.0453 3.92C102.619 5.46666 105.765 7.62666 108.485 10.4C111.259 13.12 113.419 16.2667 114.965 19.84C116.512 23.36 117.285 27.12 117.285 31.12C117.285 35.2267 116.512 39.0667 114.965 42.64C113.419 46.2133 111.259 49.36 108.485 52.08C105.765 54.7467 102.619 56.8533 99.0453 58.4C95.5253 59.8933 91.7386 60.64 87.6853 60.64C83.5786 60.64 79.7386 59.8933 76.1653 58.4C72.6453 56.9067 69.5253 54.8267 66.8053 52.16C64.0853 49.4933 61.952 46.3733 60.4053 42.8C58.912 39.2267 58.1653 35.3333 58.1653 31.12ZM66.1653 31.2C66.1653 34.24 66.7253 37.0933 67.8453 39.76C68.9653 42.3733 70.512 44.6933 72.4853 46.72C74.4586 48.7467 76.752 50.3467 79.3653 51.52C81.9786 52.64 84.8053 53.2 87.8453 53.2C90.832 53.2 93.632 52.64 96.2453 51.52C98.8586 50.3467 101.125 48.7467 103.045 46.72C104.965 44.6933 106.485 42.3733 107.605 39.76C108.725 37.0933 109.285 34.2133 109.285 31.12C109.285 28.08 108.725 25.2267 107.605 22.56C106.485 19.84 104.939 17.4667 102.965 15.44C100.992 13.4133 98.6986 11.84 96.0853 10.72C93.472 9.54666 90.672 8.96 87.6853 8.96C84.6453 8.96 81.8186 9.54666 79.2053 10.72C76.592 11.8933 74.2986 13.4933 72.3253 15.52C70.352 17.5467 68.832 19.92 67.7653 22.64C66.6986 25.3067 66.1653 28.16 66.1653 31.2ZM24.78 119.52C24.78 122.133 25.3933 124.48 26.62 126.56C27.9 128.587 29.58 130.187 31.66 131.36C33.74 132.533 36.0867 133.12 38.7 133.12C41.42 133.12 43.8467 132.533 45.98 131.36C48.1133 130.187 49.7933 128.587 51.02 126.56C52.2467 124.48 52.86 122.133 52.86 119.52V82.16H60.46V119.76C60.46 123.973 59.4733 127.653 57.5 130.8C55.58 133.947 52.9667 136.373 49.66 138.08C46.4067 139.787 42.7533 140.64 38.7 140.64C34.6467 140.64 30.9933 139.787 27.74 138.08C24.4867 136.373 21.9 133.947 19.98 130.8C18.06 127.653 17.1 123.973 17.1 119.76V82.16H24.78V119.52ZM72.0956 82.16H110.496V89.6H94.9756V140H87.2156V89.6H72.0956V82.16ZM20.945 162.16H58.545V169.6H28.705V187.2H55.345V194.64H28.705V212.56H59.665V220H20.945V162.16ZM103.053 172.48C101.079 171.467 98.9192 170.587 96.5725 169.84C94.2258 169.093 91.9325 168.72 89.6925 168.72C86.5992 168.72 84.1192 169.44 82.2525 170.88C80.4392 172.32 79.5325 174.24 79.5325 176.64C79.5325 178.453 80.1192 180 81.2925 181.28C82.4658 182.507 84.0125 183.573 85.9325 184.48C87.8525 185.387 89.8525 186.24 91.9325 187.04C93.7458 187.733 95.5325 188.507 97.2925 189.36C99.0525 190.213 100.626 191.28 102.013 192.56C103.453 193.84 104.573 195.413 105.373 197.28C106.226 199.147 106.653 201.467 106.653 204.24C106.653 207.28 105.879 210.053 104.333 212.56C102.839 215.067 100.679 217.04 97.8525 218.48C95.0258 219.92 91.6658 220.64 87.7725 220.64C85.2125 220.64 82.7592 220.347 80.4125 219.76C78.1192 219.173 75.9858 218.427 74.0125 217.52C72.0392 216.56 70.2792 215.573 68.7325 214.56L72.1725 208.48C73.4525 209.387 74.9192 210.267 76.5725 211.12C78.2258 211.92 79.9592 212.587 81.7725 213.12C83.5858 213.6 85.3458 213.84 87.0525 213.84C88.8658 213.84 90.6525 213.52 92.4125 212.88C94.2258 212.187 95.7192 211.147 96.8925 209.76C98.0658 208.373 98.6525 206.533 98.6525 204.24C98.6525 202.267 98.1192 200.64 97.0525 199.36C96.0392 198.027 94.6792 196.907 92.9725 196C91.2658 195.04 89.4525 194.187 87.5325 193.44C85.7192 192.747 83.8792 192 82.0125 191.2C80.1458 190.347 78.4125 189.333 76.8125 188.16C75.2125 186.933 73.9325 185.44 72.9725 183.68C72.0125 181.92 71.5325 179.787 71.5325 177.28C71.5325 174.24 72.2525 171.6 73.6925 169.36C75.1858 167.067 77.2125 165.28 79.7725 164C82.3325 162.667 85.2658 161.947 88.5725 161.84C92.3058 161.84 95.5858 162.293 98.4125 163.2C101.293 164.107 103.826 165.227 106.013 166.56L103.053 172.48Z" fill="black"/>
<path d="M99 31.5C99 37.8513 93.8513 43 87.5 43C81.1487 43 76 37.8513 76 31.5C76 25.1487 81.1487 20 87.5 20C93.8513 20 99 25.1487 99 31.5Z" fill="#FFC700"/>
</svg>
