<svg width="80" height="53" viewBox="0 0 80 53" fill="none" xmlns="http://www.w3.org/2000/svg">
<rect width="80" height="53" rx="5" fill="black"/>
<path d="M52 24.768C53.3333 25.5378 53.3333 27.4623 52 28.2321L35.5 37.7583C34.1667 38.5281 32.5 37.5659 32.5 36.0263L32.5 16.9737C32.5 15.4341 34.1667 14.4719 35.5 15.2417L52 24.768Z" fill="#FFC700"/>
<rect x="7" y="3" width="6" height="4" fill="white" fill-opacity="0.2"/>
<rect x="67" y="3" width="6" height="4" fill="white" fill-opacity="0.2"/>
<rect x="57" y="3" width="6" height="4" fill="white" fill-opacity="0.2"/>
<rect x="47" y="3" width="6" height="4" fill="white" fill-opacity="0.2"/>
<rect x="37" y="3" width="6" height="4" fill="white" fill-opacity="0.2"/>
<rect x="27" y="3" width="6" height="4" fill="white" fill-opacity="0.2"/>
<rect x="17" y="3" width="6" height="4" fill="white" fill-opacity="0.2"/>
<rect x="7" y="46" width="6" height="4" fill="white" fill-opacity="0.2"/>
<rect x="67" y="46" width="6" height="4" fill="white" fill-opacity="0.2"/>
<rect x="57" y="46" width="6" height="4" fill="white" fill-opacity="0.2"/>
<rect x="47" y="46" width="6" height="4" fill="white" fill-opacity="0.2"/>
<rect x="37" y="46" width="6" height="4" fill="white" fill-opacity="0.2"/>
<rect x="27" y="46" width="6" height="4" fill="white" fill-opacity="0.2"/>
<rect x="17" y="46" width="6" height="4" fill="white" fill-opacity="0.2"/>
</svg>
